<?xml version="1.0" standalone="no"?><!DOCTYPE svg PUBLIC "-//W3C//DTD SVG 1.1//EN" "http://www.w3.org/Graphics/SVG/1.1/DTD/svg11.dtd"><svg t="1685614810032" class="icon" viewBox="0 0 1024 1024" version="1.1" xmlns="http://www.w3.org/2000/svg" p-id="3881" width="32" height="32" xmlns:xlink="http://www.w3.org/1999/xlink"><path d="M320 64H208c-79.529 0-144 64.471-144 144v112c0 79.528 64.471 144 144 144h112c79.529 0 144-64.472 144-144V208c0-79.529-64.471-144-144-144z m64 256c0 35.289-28.71 64-64 64H208c-35.29 0-64-28.711-64-64V208c0-35.29 28.71-64 64-64h112c35.29 0 64 28.71 64 64v112zM816 64H704c-79.529 0-144 64.471-144 144v112c0 79.528 64.471 144 144 144h112c79.529 0 144-64.472 144-144V208c0-79.529-64.471-144-144-144z m64 256c0 35.289-28.71 64-64 64H704c-35.29 0-64-28.711-64-64V208c0-35.29 28.71-64 64-64h112c35.29 0 64 28.71 64 64v112zM320 560H208c-79.529 0-144 64.471-144 144v112c0 79.528 64.471 144 144 144h112c79.529 0 144-64.472 144-144V704c0-79.529-64.471-144-144-144z m64 256c0 35.289-28.71 64-64 64H208c-35.29 0-64-28.711-64-64V704c0-35.29 28.71-64 64-64h112c35.29 0 64 28.71 64 64v112zM816 560H704c-79.529 0-144 64.471-144 144v112c0 79.528 64.471 144 144 144h112c79.529 0 144-64.472 144-144V704c0-79.529-64.471-144-144-144z m64 256c0 35.289-28.71 64-64 64H704c-35.29 0-64-28.711-64-64V704c0-35.29 28.71-64 64-64h112c35.29 0 64 28.71 64 64v112z" fill="#515151" p-id="3882"></path></svg>