<?xml version="1.0" standalone="no"?><!DOCTYPE svg PUBLIC "-//W3C//DTD SVG 1.1//EN" "http://www.w3.org/Graphics/SVG/1.1/DTD/svg11.dtd"><svg t="1690101828660" class="icon" viewBox="0 0 1024 1024" version="1.1" xmlns="http://www.w3.org/2000/svg" p-id="5281" xmlns:xlink="http://www.w3.org/1999/xlink" width="150" height="150"><path d="M512 909.07c-55.01 0-108.39-10.78-158.65-32.03-48.53-20.53-92.12-49.91-129.55-87.34-37.43-37.43-66.81-81.01-87.34-129.54-21.26-50.26-32.03-103.63-32.03-158.65s10.78-108.39 32.03-158.65c20.53-48.53 49.91-92.12 87.34-129.55 37.43-37.43 81.01-66.81 129.55-87.34C403.61 104.71 456.99 93.94 512 93.94s108.39 10.78 158.65 32.03c48.54 20.53 92.12 49.91 129.55 87.34 37.42 37.43 66.81 81.01 87.34 129.55 21.26 50.26 32.03 103.63 32.03 158.65s-10.78 108.39-32.03 158.65c-20.53 48.53-49.91 92.12-87.34 129.54-37.43 37.43-81.01 66.81-129.55 87.34-50.26 21.25-103.64 32.03-158.65 32.03z m0-786.13c-208.74 0-378.57 169.82-378.57 378.57 0 208.74 169.82 378.57 378.57 378.57 208.74 0 378.57-169.82 378.57-378.57S720.74 122.94 512 122.94z" p-id="5282" fill="#ffffff"></path><path d="M507.49 248.81l-85.55 104.04h171.09z" p-id="5283" fill="#ffffff"></path><path d="M507.49 300.83L404.57 425.99H610.4z" p-id="5284" fill="#ffffff"></path><path d="M507.49 379.21l-97.62 118.71H605.1z" p-id="5285" fill="#ffffff"></path><path d="M491.19 453.04h28.04v134.02h-28.04z" p-id="5286" fill="#ffffff"></path><path d="M323.44 381.58L265.7 451.8h115.48z" p-id="5287" fill="#ffffff"></path><path d="M323.44 416.69l-69.47 84.48h138.94z" p-id="5288" fill="#ffffff"></path><path d="M323.44 469.6l-65.89 80.13h131.78z" p-id="5289" fill="#ffffff"></path><path d="M312.44 519.43h18.92v90.46h-18.92z" p-id="5290" fill="#ffffff"></path><path d="M676.9 473.15l-38.74 47.1h77.48z" p-id="5291" fill="#ffffff"></path><path d="M676.9 496.7l-46.61 56.67h93.21z" p-id="5292" fill="#ffffff"></path><path d="M676.9 532.19l-44.21 53.76h88.41z" p-id="5293" fill="#ffffff"></path><path d="M669.52 565.62h12.7v60.69h-12.7z" p-id="5294" fill="#ffffff"></path><path d="M208.68 665.77s8.58-44.67 172.5-89.35c94.91-10.8 90.6 0 90.6 0s133.72 0.79 158.51 19.54c24.79 18.75 101.24 1.18 93.21 22.73-8.03 21.55-218.17 49.2-113.1 47.07 105.07-2.13 258.19 21.27 204.27 34.04-53.91 12.76-224.28 29.78-237.22 0-12.94-29.78-174.44 63.86-151.92-12.74 22.52-76.61-35.7-46.82-76.68-12.78s-73.32 23.4-56.07-4.25c17.25-27.66 22.26-31.91-35.24-4.25s-85.82 36.16-48.86-0.01z" p-id="5295" fill="#ffffff"></path></svg>